<svg xmlns="http://www.w3.org/2000/svg" xmlns:xlink="http://www.w3.org/1999/xlink" width="1366" zoomAndPan="magnify" viewBox="0 0 1024.5 576" height="768" preserveAspectRatio="xMidYMid meet" version="1.0"><defs><g/><clipPath id="a4200eff09"><path d="M 0 0.140625 L 1024 0.140625 L 1024 575.859375 L 0 575.859375 Z M 0 0.140625 " clip-rule="nonzero"/></clipPath></defs><g clip-path="url(#a4200eff09)"><path fill="#ffffff" d="M 0 0.140625 L 1024 0.140625 L 1024 575.859375 L 0 575.859375 Z M 0 0.140625 " fill-opacity="1" fill-rule="nonzero"/><path fill="#ffffff" d="M 0 0.140625 L 1024 0.140625 L 1024 575.859375 L 0 575.859375 Z M 0 0.140625 " fill-opacity="1" fill-rule="nonzero"/></g><g fill="#191919" fill-opacity="1"><g transform="translate(168.19851, 244.714027)"><g><path d="M 0.421875 -1.046875 C 4.066406 -3.578125 7.15625 -6.523438 9.6875 -9.890625 C 12.21875 -13.265625 14.394531 -17.34375 16.21875 -22.125 L 65.9375 -148.296875 L 73.09375 -148.296875 L 122.8125 -22.125 C 124.78125 -17.207031 126.675781 -13.203125 128.5 -10.109375 C 130.320312 -7.023438 132.640625 -4.003906 135.453125 -1.046875 L 135.453125 0 L 97.953125 0 L 97.953125 -1.046875 C 99.359375 -2.597656 100.515625 -4.492188 101.421875 -6.734375 C 102.335938 -8.984375 102.796875 -11.375 102.796875 -13.90625 C 102.796875 -16.425781 102.234375 -19.234375 101.109375 -22.328125 L 89.953125 -50.984375 L 33.28125 -50.984375 L 22.125 -22.75 C 20.851562 -19.375 20.21875 -16.285156 20.21875 -13.484375 C 20.21875 -8.421875 22.328125 -4.273438 26.546875 -1.046875 L 26.546875 0 L 0.421875 0 Z M 61.515625 -123.859375 L 34.765625 -55.40625 L 88.265625 -55.40625 Z M 61.515625 -123.859375 "/></g></g></g><g fill="#191919" fill-opacity="1"><g transform="translate(301.906042, 244.714027)"><g><path d="M 15.796875 -1.046875 C 19.453125 -6.109375 21.28125 -12.640625 21.28125 -20.640625 L 21.28125 -77.734375 C 21.28125 -82.367188 20.71875 -86.226562 19.59375 -89.3125 C 18.46875 -92.40625 16.78125 -95.003906 14.53125 -97.109375 L 14.53125 -98.171875 L 38.96875 -107.640625 L 40.03125 -107.640625 L 40.03125 -86.375 L 41.078125 -86.375 C 43.890625 -92.6875 48.242188 -97.804688 54.140625 -101.734375 C 60.035156 -105.671875 66.914062 -107.640625 74.78125 -107.640625 C 85.457031 -107.640625 93.953125 -104.164062 100.265625 -97.21875 C 106.585938 -90.269531 109.75 -81.316406 109.75 -70.359375 L 109.75 -20.640625 C 109.75 -12.640625 111.578125 -6.109375 115.234375 -1.046875 L 115.234375 0 L 85.53125 0 L 85.53125 -1.046875 C 89.175781 -6.109375 91 -12.640625 91 -20.640625 L 91 -70.15625 C 91 -77.457031 88.75 -83.492188 84.25 -88.265625 C 79.757812 -93.035156 73.863281 -95.421875 66.5625 -95.421875 C 59.257812 -95.421875 53.007812 -93.066406 47.8125 -88.359375 C 42.625 -83.660156 40.03125 -77.59375 40.03125 -70.15625 L 40.03125 -20.640625 C 40.03125 -12.640625 41.851562 -6.109375 45.5 -1.046875 L 45.5 0 L 15.796875 0 Z M 15.796875 -1.046875 "/></g></g></g><g fill="#191919" fill-opacity="1"><g transform="translate(426.55922, 244.714027)"><g><path d="M 15.796875 -1.046875 C 19.453125 -6.109375 21.28125 -12.640625 21.28125 -20.640625 L 21.28125 -77.734375 C 21.28125 -82.367188 20.71875 -86.226562 19.59375 -89.3125 C 18.46875 -92.40625 16.78125 -95.003906 14.53125 -97.109375 L 14.53125 -98.171875 L 38.96875 -107.640625 L 40.03125 -107.640625 L 40.03125 -86.375 L 41.078125 -86.375 C 43.890625 -92.6875 48.242188 -97.804688 54.140625 -101.734375 C 60.035156 -105.671875 66.914062 -107.640625 74.78125 -107.640625 C 85.457031 -107.640625 93.953125 -104.164062 100.265625 -97.21875 C 106.585938 -90.269531 109.75 -81.316406 109.75 -70.359375 L 109.75 -20.640625 C 109.75 -12.640625 111.578125 -6.109375 115.234375 -1.046875 L 115.234375 0 L 85.53125 0 L 85.53125 -1.046875 C 89.175781 -6.109375 91 -12.640625 91 -20.640625 L 91 -70.15625 C 91 -77.457031 88.75 -83.492188 84.25 -88.265625 C 79.757812 -93.035156 73.863281 -95.421875 66.5625 -95.421875 C 59.257812 -95.421875 53.007812 -93.066406 47.8125 -88.359375 C 42.625 -83.660156 40.03125 -77.59375 40.03125 -70.15625 L 40.03125 -20.640625 C 40.03125 -12.640625 41.851562 -6.109375 45.5 -1.046875 L 45.5 0 L 15.796875 0 Z M 15.796875 -1.046875 "/></g></g></g><g fill="#191919" fill-opacity="1"><g transform="translate(551.212383, 244.714027)"><g><path d="M 98.59375 -4.421875 C 97.46875 -2.453125 95.601562 -0.835938 93 0.421875 C 90.40625 1.679688 87.5625 2.3125 84.46875 2.3125 C 79.695312 2.3125 75.800781 1.117188 72.78125 -1.265625 C 69.757812 -3.648438 68.179688 -7.160156 68.046875 -11.796875 L 67.828125 -14.328125 L 66.984375 -14.328125 C 63.898438 -8.984375 59.789062 -4.875 54.65625 -2 C 49.53125 0.875 43.53125 2.3125 36.65625 2.3125 C 28.363281 2.3125 21.863281 0.273438 17.15625 -3.796875 C 12.457031 -7.867188 10.109375 -13.132812 10.109375 -19.59375 C 10.109375 -27.175781 12.914062 -33.492188 18.53125 -38.546875 C 24.15625 -43.609375 31.351562 -47.332031 40.125 -49.71875 C 48.90625 -52.101562 58.210938 -53.296875 68.046875 -53.296875 L 68.046875 -70.5625 C 68.046875 -78.144531 65.585938 -84.429688 60.671875 -89.421875 C 55.753906 -94.410156 49.289062 -96.90625 41.28125 -96.90625 C 34.96875 -96.90625 29.421875 -95.359375 24.640625 -92.265625 C 19.867188 -89.179688 16.148438 -84.96875 13.484375 -79.625 L 11.375 -79.625 C 13.625 -88.195312 18.117188 -95.007812 24.859375 -100.0625 C 31.597656 -105.113281 39.601562 -107.640625 48.875 -107.640625 C 60.53125 -107.640625 69.765625 -104.195312 76.578125 -97.3125 C 83.390625 -90.4375 86.796875 -81.519531 86.796875 -70.5625 L 86.796875 -11.796875 C 86.796875 -9.265625 87.390625 -7.367188 88.578125 -6.109375 C 89.773438 -4.847656 91.285156 -4.21875 93.109375 -4.21875 C 95.492188 -4.21875 96.96875 -4.640625 97.53125 -5.484375 Z M 46.96875 -7.578125 C 53.15625 -7.578125 58.210938 -9.859375 62.140625 -14.421875 C 66.078125 -18.992188 68.046875 -24.15625 68.046875 -29.90625 L 68.046875 -48.875 C 56.242188 -48.59375 46.9375 -46.304688 40.125 -42.015625 C 33.3125 -37.734375 29.90625 -31.800781 29.90625 -24.21875 C 29.90625 -18.75 31.59375 -14.609375 34.96875 -11.796875 C 38.34375 -8.984375 42.34375 -7.578125 46.96875 -7.578125 Z M 46.96875 -7.578125 "/></g></g></g><g fill="#191919" fill-opacity="1"><g transform="translate(650.882421, 244.714027)"><g/></g></g><g fill="#191919" fill-opacity="1"><g transform="translate(168.19851, 453.92966)"><g><path d="M 17.6875 -1.046875 C 19.519531 -3.578125 21.066406 -6.738281 22.328125 -10.53125 C 23.585938 -14.320312 24.21875 -18.1875 24.21875 -22.125 L 24.21875 -125.34375 C 24.21875 -129.269531 23.585938 -133.128906 22.328125 -136.921875 C 21.066406 -140.710938 19.519531 -143.875 17.6875 -146.40625 L 17.6875 -147.453125 L 112.703125 -147.453125 L 117.125 -112.703125 L 115.015625 -112.703125 C 112.066406 -119.441406 108.976562 -124.953125 105.75 -129.234375 C 102.519531 -133.515625 98.304688 -136.882812 93.109375 -139.34375 C 87.910156 -141.800781 81.453125 -143.03125 73.734375 -143.03125 L 44.234375 -143.03125 L 44.234375 -76.890625 L 72.25 -76.890625 C 84.75 -76.890625 92.472656 -83 95.421875 -95.21875 L 97.53125 -95.21875 L 97.53125 -54.140625 L 95.421875 -54.140625 C 92.335938 -66.359375 84.613281 -72.46875 72.25 -72.46875 L 44.234375 -72.46875 L 44.234375 -4.421875 L 78.78125 -4.421875 C 86.507812 -4.421875 92.96875 -5.648438 98.15625 -8.109375 C 103.351562 -10.566406 107.566406 -13.9375 110.796875 -18.21875 C 114.035156 -22.5 117.128906 -28.015625 120.078125 -34.765625 L 122.1875 -34.765625 L 117.75 0 L 17.6875 0 Z M 17.6875 -1.046875 "/></g></g></g><g fill="#191919" fill-opacity="1"><g transform="translate(294.746748, 453.92966)"><g><path d="M 15.796875 -1.046875 C 19.453125 -6.109375 21.28125 -12.640625 21.28125 -20.640625 L 21.28125 -77.734375 C 21.28125 -82.367188 20.71875 -86.226562 19.59375 -89.3125 C 18.46875 -92.40625 16.78125 -95.003906 14.53125 -97.109375 L 14.53125 -98.171875 L 38.96875 -107.640625 L 40.03125 -107.640625 L 40.03125 -86.375 L 41.078125 -86.375 C 43.890625 -92.6875 48.242188 -97.804688 54.140625 -101.734375 C 60.035156 -105.671875 66.914062 -107.640625 74.78125 -107.640625 C 85.457031 -107.640625 93.953125 -104.164062 100.265625 -97.21875 C 106.585938 -90.269531 109.75 -81.316406 109.75 -70.359375 L 109.75 -20.640625 C 109.75 -12.640625 111.578125 -6.109375 115.234375 -1.046875 L 115.234375 0 L 85.53125 0 L 85.53125 -1.046875 C 89.175781 -6.109375 91 -12.640625 91 -20.640625 L 91 -70.15625 C 91 -77.457031 88.75 -83.492188 84.25 -88.265625 C 79.757812 -93.035156 73.863281 -95.421875 66.5625 -95.421875 C 59.257812 -95.421875 53.007812 -93.066406 47.8125 -88.359375 C 42.625 -83.660156 40.03125 -77.59375 40.03125 -70.15625 L 40.03125 -20.640625 C 40.03125 -12.640625 41.851562 -6.109375 45.5 -1.046875 L 45.5 0 L 15.796875 0 Z M 15.796875 -1.046875 "/></g></g></g><g fill="#191919" fill-opacity="1"><g transform="translate(419.399926, 453.92966)"><g><path d="M 107.859375 -100.0625 C 101.535156 -100.0625 96.722656 -99.78125 93.421875 -99.21875 C 90.117188 -98.65625 87.132812 -97.53125 84.46875 -95.84375 C 87.5625 -92.757812 89.945312 -89.179688 91.625 -85.109375 C 93.3125 -81.035156 94.15625 -76.75 94.15625 -72.25 C 94.15625 -65.507812 92.363281 -59.4375 88.78125 -54.03125 C 85.207031 -48.625 80.328125 -44.410156 74.140625 -41.390625 C 67.960938 -38.367188 61.15625 -36.859375 53.71875 -36.859375 C 43.882812 -36.859375 35.457031 -39.316406 28.4375 -44.234375 C 26.75 -42.410156 25.519531 -40.691406 24.75 -39.078125 C 23.976562 -37.460938 23.59375 -35.742188 23.59375 -33.921875 C 23.59375 -30.265625 24.890625 -27.523438 27.484375 -25.703125 C 30.085938 -23.878906 33.351562 -22.71875 37.28125 -22.21875 C 41.21875 -21.726562 46.765625 -21.414062 53.921875 -21.28125 C 69.929688 -20.851562 82.007812 -18.8125 90.15625 -15.15625 C 98.300781 -11.507812 102.375 -4.769531 102.375 5.0625 C 102.375 12.21875 99.878906 18.78125 94.890625 24.75 C 89.910156 30.71875 83.171875 35.457031 74.671875 38.96875 C 66.179688 42.476562 56.945312 44.234375 46.96875 44.234375 C 35.039062 44.234375 25.5625 41.597656 18.53125 36.328125 C 11.507812 31.066406 8 24.082031 8 15.375 C 8 6.101562 12.210938 -2.25 20.640625 -9.6875 C 14.878906 -13.34375 12 -18.609375 12 -25.484375 C 12 -29.273438 13.015625 -32.890625 15.046875 -36.328125 C 17.085938 -39.773438 20.425781 -43.1875 25.0625 -46.5625 C 21.269531 -49.789062 18.285156 -53.578125 16.109375 -57.921875 C 13.929688 -62.273438 12.84375 -67.050781 12.84375 -72.25 C 12.84375 -79.132812 14.632812 -85.242188 18.21875 -90.578125 C 21.800781 -95.921875 26.679688 -100.097656 32.859375 -103.109375 C 39.035156 -106.128906 45.914062 -107.640625 53.5 -107.640625 C 65.019531 -107.640625 74.570312 -104.410156 82.15625 -97.953125 C 84.96875 -103.148438 88.582031 -107.082031 93 -109.75 C 97.425781 -112.414062 102.378906 -113.75 107.859375 -113.75 Z M 53.5 -41.28125 C 60.25 -41.28125 65.660156 -44.085938 69.734375 -49.703125 C 73.804688 -55.328125 75.84375 -62.84375 75.84375 -72.25 C 75.84375 -81.664062 73.804688 -89.179688 69.734375 -94.796875 C 65.660156 -100.410156 60.25 -103.21875 53.5 -103.21875 C 46.757812 -103.21875 41.351562 -100.410156 37.28125 -94.796875 C 33.207031 -89.179688 31.171875 -81.664062 31.171875 -72.25 C 31.171875 -62.84375 33.207031 -55.328125 37.28125 -49.703125 C 41.351562 -44.085938 46.757812 -41.28125 53.5 -41.28125 Z M 55.1875 -3.796875 C 46.757812 -4.078125 40.265625 -4.460938 35.703125 -4.953125 C 31.140625 -5.441406 27.242188 -6.457031 24.015625 -8 C 21.910156 -4.914062 20.859375 -0.84375 20.859375 4.21875 C 20.859375 10.394531 22.613281 15.90625 26.125 20.75 C 29.632812 25.59375 34.375 29.382812 40.34375 32.125 C 46.3125 34.863281 52.875 36.234375 60.03125 36.234375 C 68.457031 36.234375 75.757812 34.335938 81.9375 30.546875 C 88.125 26.753906 91.21875 21.207031 91.21875 13.90625 C 91.21875 9.40625 89.988281 5.925781 87.53125 3.46875 C 85.070312 1.019531 81.28125 -0.726562 76.15625 -1.78125 C 71.03125 -2.84375 64.039062 -3.515625 55.1875 -3.796875 Z M 55.1875 -3.796875 "/></g></g></g><g fill="#191919" fill-opacity="1"><g transform="translate(526.36534, 453.92966)"><g><path d="M 102.171875 -33.5 C 99.921875 -22.820312 94.898438 -14.179688 87.109375 -7.578125 C 79.316406 -0.984375 69.867188 2.3125 58.765625 2.3125 C 49.503906 2.3125 41.1875 0.242188 33.8125 -3.890625 C 26.4375 -8.035156 20.609375 -14.039062 16.328125 -21.90625 C 12.046875 -29.769531 9.90625 -39.039062 9.90625 -49.71875 C 9.90625 -61.226562 12.21875 -71.375 16.84375 -80.15625 C 21.476562 -88.9375 27.65625 -95.710938 35.375 -100.484375 C 43.101562 -105.253906 51.394531 -107.640625 60.25 -107.640625 C 68.53125 -107.640625 75.691406 -105.8125 81.734375 -102.15625 C 87.773438 -98.507812 92.375 -93.703125 95.53125 -87.734375 C 98.6875 -81.765625 100.265625 -75.269531 100.265625 -68.25 L 26.125 -68.25 L 26.125 -66.140625 C 26.125 -54.628906 27.878906 -44.867188 31.390625 -36.859375 C 34.898438 -28.859375 39.707031 -22.820312 45.8125 -18.75 C 51.925781 -14.675781 58.84375 -12.640625 66.5625 -12.640625 C 74.425781 -12.640625 81.304688 -14.5 87.203125 -18.21875 C 93.109375 -21.9375 97.394531 -27.03125 100.0625 -33.5 Z M 53.5 -101.328125 C 46.625 -101.328125 40.65625 -98.9375 35.59375 -94.15625 C 30.539062 -89.382812 27.523438 -82.222656 26.546875 -72.671875 L 80.265625 -72.671875 C 79.140625 -81.804688 76.328125 -88.863281 71.828125 -93.84375 C 67.335938 -98.832031 61.226562 -101.328125 53.5 -101.328125 Z M 53.5 -101.328125 "/></g></g></g><g fill="#191919" fill-opacity="1"><g transform="translate(632.067372, 453.92966)"><g><path d="M 14.75 -1.046875 C 18.394531 -6.109375 20.21875 -12.640625 20.21875 -20.640625 L 20.21875 -127.03125 C 20.21875 -131.664062 19.65625 -135.523438 18.53125 -138.609375 C 17.414062 -141.703125 15.734375 -144.367188 13.484375 -146.609375 L 13.484375 -147.671875 L 37.921875 -156.9375 L 38.96875 -156.9375 L 38.96875 -20.640625 C 38.96875 -12.640625 40.796875 -6.109375 44.453125 -1.046875 L 44.453125 0 L 14.75 0 Z M 14.75 -1.046875 "/></g></g></g><g fill="#191919" fill-opacity="1"><g transform="translate(685.96978, 453.92966)"><g><path d="M 15.796875 -1.046875 C 19.453125 -6.109375 21.28125 -12.640625 21.28125 -20.640625 L 21.28125 -77.734375 C 21.28125 -82.367188 20.71875 -86.226562 19.59375 -89.3125 C 18.46875 -92.40625 16.78125 -95.003906 14.53125 -97.109375 L 14.53125 -98.171875 L 38.96875 -107.640625 L 40.03125 -107.640625 L 40.03125 -86.375 L 41.078125 -86.375 C 43.890625 -92.6875 48.242188 -97.804688 54.140625 -101.734375 C 60.035156 -105.671875 66.914062 -107.640625 74.78125 -107.640625 C 85.457031 -107.640625 93.953125 -104.164062 100.265625 -97.21875 C 106.585938 -90.269531 109.75 -81.316406 109.75 -70.359375 L 109.75 -20.640625 C 109.75 -12.640625 111.578125 -6.109375 115.234375 -1.046875 L 115.234375 0 L 85.53125 0 L 85.53125 -1.046875 C 89.175781 -6.109375 91 -12.640625 91 -20.640625 L 91 -70.15625 C 91 -77.457031 88.75 -83.492188 84.25 -88.265625 C 79.757812 -93.035156 73.863281 -95.421875 66.5625 -95.421875 C 59.257812 -95.421875 53.007812 -93.066406 47.8125 -88.359375 C 42.625 -83.660156 40.03125 -77.59375 40.03125 -70.15625 L 40.03125 -20.640625 C 40.03125 -12.640625 41.851562 -6.109375 45.5 -1.046875 L 45.5 0 L 15.796875 0 Z M 15.796875 -1.046875 "/></g></g></g></svg>