<?xml version="1.0" standalone="no"?>
<!DOCTYPE svg PUBLIC "-//W3C//DTD SVG 20010904//EN"
 "http://www.w3.org/TR/2001/REC-SVG-20010904/DTD/svg10.dtd">
<svg version="1.0" xmlns="http://www.w3.org/2000/svg"
 width="1080.000000pt" height="1080.000000pt" viewBox="0 0 1080.000000 1080.000000"
 preserveAspectRatio="xMidYMid meet">
<metadata>
Created by potrace 1.14, written by Peter Selinger 2001-2017
</metadata>
<g transform="translate(0.000000,1080.000000) scale(0.100000,-0.100000)"
fill="#000000" stroke="none">
<path d="M7125 7269 c-11 -5 -69 -20 -129 -34 -62 -14 -131 -38 -160 -54 -28
-16 -82 -39 -119 -52 -62 -21 -76 -32 -170 -129 -210 -216 -372 -430 -536
-710 -82 -140 -98 -160 -111 -140 -7 11 -10 7 -10 -20 0 -29 -10 -46 -55 -95
-58 -62 -71 -65 -31 -6 42 63 196 323 196 332 0 23 -20 2 -70 -73 -78 -115
-128 -178 -144 -178 -8 0 -13 -10 -13 -22 1 -14 -71 -129 -187 -298 -338 -493
-409 -591 -462 -636 -28 -24 -80 -80 -115 -125 -76 -97 -92 -86 -21 15 28 39
92 132 143 206 51 74 149 213 216 309 125 175 157 232 69 122 -27 -33 -54 -62
-61 -65 -19 -7 -115 -128 -267 -336 -75 -102 -178 -234 -231 -295 -128 -148
-354 -367 -453 -437 -132 -94 -311 -175 -335 -151 -16 16 -27 238 -18 363 20
271 97 549 292 1045 108 276 256 572 383 768 35 53 73 116 84 138 38 73 70
183 70 238 0 50 -4 58 -46 108 -56 66 -88 83 -153 83 -45 0 -49 2 -44 21 6 21
4 21 -43 15 -27 -4 -74 -19 -104 -34 -49 -24 -58 -34 -90 -97 -19 -38 -56
-102 -82 -142 -26 -40 -54 -86 -63 -104 -12 -22 -20 -28 -27 -21 -8 8 -7 25 4
59 9 26 14 50 12 52 -2 3 -16 -6 -30 -20 -22 -19 -28 -21 -32 -9 -2 8 -37 47
-76 86 -109 108 -255 175 -504 231 -14 3 -30 -1 -42 -12 -12 -11 -52 -22 -103
-30 -108 -16 -138 -31 -231 -116 -107 -99 -215 -238 -380 -488 -169 -255 -207
-322 -335 -581 -362 -731 -491 -1333 -332 -1537 20 -26 44 -68 51 -92 19 -61
91 -129 183 -176 73 -37 77 -38 120 -25 65 18 161 83 242 164 190 191 704 923
955 1361 85 147 91 157 96 152 2 -2 -5 -33 -15 -68 -175 -567 -185 -1018 -30
-1322 58 -115 183 -247 269 -285 48 -22 214 -20 299 3 132 34 258 104 411 226
166 132 260 232 310 329 23 47 67 117 97 157 68 89 154 243 222 396 26 59 27
74 4 56 -17 -13 -17 -12 -2 11 8 14 19 31 23 39 6 9 10 10 16 2 4 -7 12 5 19
29 6 22 53 95 104 163 51 68 121 172 156 233 116 199 173 294 177 294 2 0 -3
-17 -12 -37 -129 -305 -159 -445 -158 -758 0 -255 13 -333 88 -547 59 -165 73
-199 96 -223 10 -11 40 -58 65 -105 58 -105 76 -125 197 -216 113 -84 220
-140 297 -154 79 -15 259 -12 339 5 79 16 225 76 309 127 68 41 334 251 427
338 86 81 265 278 276 305 5 11 59 74 121 140 175 188 286 329 334 425 15 30
37 69 50 85 12 17 27 46 33 65 7 19 41 88 77 153 36 65 65 125 65 134 0 8 10
33 22 54 12 21 18 42 14 46 -9 9 -66 -55 -66 -72 0 -6 -36 -56 -81 -111 -123
-153 -162 -204 -157 -209 2 -3 29 21 59 52 40 41 55 52 57 39 5 -23 -50 -136
-66 -136 -7 0 -10 -5 -7 -11 8 -12 -47 -105 -111 -190 -52 -68 -69 -83 -88
-76 -10 4 -34 -14 -65 -49 -52 -57 -71 -96 -26 -54 14 13 27 21 30 18 7 -6
-211 -218 -225 -218 -19 0 2 26 66 84 36 32 63 61 60 63 -3 3 -27 -13 -53 -37
-46 -40 -48 -41 -53 -20 -5 21 -7 21 -19 6 -7 -9 -18 -16 -24 -16 -5 0 47 58
117 130 69 71 126 134 126 140 0 5 -8 10 -18 10 -21 0 -52 -29 -52 -48 0 -7
-4 -12 -10 -12 -11 0 -15 -3 -110 -87 -142 -127 -326 -271 -295 -233 10 14
146 151 300 305 259 258 405 420 482 535 50 75 50 77 19 56 l-29 -19 22 32
c12 17 26 30 32 28 5 -1 19 14 32 34 12 20 31 50 42 68 11 18 50 80 87 138 90
141 73 159 -19 21 -54 -80 -279 -350 -420 -503 -119 -130 -407 -407 -559 -540
-44 -38 -141 -126 -216 -194 -75 -67 -170 -148 -211 -180 -83 -61 -274 -173
-379 -220 -63 -29 -223 -65 -240 -55 -5 3 -36 7 -71 9 -79 5 -185 31 -224 55
-22 13 -36 34 -48 69 -30 91 -54 233 -66 386 -12 148 -11 152 20 338 45 267
83 387 127 404 8 3 36 -4 62 -15 68 -28 130 -35 222 -22 247 34 554 212 792
458 237 246 336 623 238 907 -21 61 -123 202 -153 211 -12 4 -40 22 -61 41
-22 18 -57 38 -78 43 -20 6 -40 15 -43 20 -7 12 -23 12 -50 -1z m141 -475
c-26 -254 -285 -563 -642 -767 -112 -63 -299 -145 -310 -135 -8 9 29 77 121
223 45 72 94 151 109 177 66 118 244 300 271 278 15 -13 166 41 208 74 18 14
77 68 132 120 55 52 104 95 109 96 5 0 6 -29 2 -66z m-3387 7 c6 -10 19 -51
31 -92 24 -89 61 -145 113 -172 28 -14 37 -25 34 -37 -4 -17 -140 -219 -455
-680 -150 -218 -478 -670 -561 -770 -60 -73 -202 -220 -213 -220 -12 0 405
618 575 850 66 91 101 149 94 156 -3 3 -16 -10 -29 -29 -137 -208 -682 -918
-845 -1103 -54 -61 -118 -112 -129 -102 -7 8 62 245 119 408 136 390 352 820
592 1180 205 308 363 470 585 603 53 32 76 34 89 8z m103 -533 c-7 -7 -12 -8
-12 -2 0 14 12 26 19 19 2 -3 -1 -11 -7 -17z m-88 -245 c-53 -93 -209 -317
-271 -391 -16 -18 -34 -40 -40 -49 -7 -9 -15 -14 -18 -12 -2 3 39 63 92 134
53 72 126 175 161 230 63 98 91 135 100 135 2 0 -9 -21 -24 -47z m2642 -198
c-20 -15 -36 -19 -36 -10 0 5 38 23 50 24 3 0 -4 -6 -14 -14z m1667 -205 c-20
-22 -39 -38 -41 -35 -6 6 58 75 69 75 4 0 -9 -18 -28 -40z m-135 -152 c-8 -12
-21 -24 -29 -26 -8 -3 -3 7 10 22 30 32 39 34 19 4z m-108 -116 c0 -4 -21 -25
-47 -46 l-48 -39 45 46 c46 49 50 52 50 39z m-2152 -227 c-1 -79 -1 -80 -8
-25 -5 30 -8 84 -8 120 0 60 1 62 9 25 4 -22 7 -76 7 -120z m2012 90 c-7 -8
-17 -15 -22 -15 -6 0 -5 7 2 15 7 8 17 15 22 15 6 0 5 -7 -2 -15z m-40 -39 c0
-8 -171 -159 -175 -154 -4 4 161 158 170 158 3 0 5 -2 5 -4z m280 -26 c0 -5
-5 -10 -11 -10 -5 0 -7 5 -4 10 3 6 8 10 11 10 2 0 4 -4 4 -10z m-280 -214 c0
-3 -4 -8 -10 -11 -5 -3 -10 -1 -10 4 0 6 5 11 10 11 6 0 10 -2 10 -4z m-323
-54 c-26 -27 -87 -68 -87 -58 0 7 100 86 108 86 3 0 -6 -12 -21 -28z"/>
<path d="M8161 5452 c-11 -16 -18 -32 -14 -36 3 -3 1 -6 -5 -6 -14 0 -55 -67
-49 -83 3 -8 8 -5 13 8 5 11 26 46 47 78 39 60 46 92 8 39z"/>
<path d="M8170 5330 c-22 -33 -37 -60 -32 -60 9 0 46 52 71 98 22 42 2 22 -39
-38z"/>
</g>
</svg>
